<?xml version="1.0" standalone="no"?>
<!DOCTYPE svg PUBLIC "-//W3C//DTD SVG 20010904//EN"
 "http://www.w3.org/TR/2001/REC-SVG-20010904/DTD/svg10.dtd">
<svg version="1.0" xmlns="http://www.w3.org/2000/svg"
 width="503.000000pt" height="309.000000pt" viewBox="0 0 503.000000 309.000000"
 preserveAspectRatio="xMidYMid meet">

<g transform="translate(0.000000,309.000000) scale(0.100000,-0.100000)"
fill="#000000" stroke="none">
<path d="M3864 2872 l-211 -15 -6 -65 c-4 -35 -4 -69 -1 -73 3 -5 39 -6 79 -2
l75 6 0 -64 c0 -35 -7 -179 -15 -319 -8 -140 -15 -272 -15 -294 l0 -38 75 4
c41 2 78 8 84 13 5 6 16 165 26 355 9 190 18 346 20 348 1 1 38 6 81 10 88 8
91 11 93 105 l1 47 -37 -1 c-21 -1 -133 -9 -249 -17z"/>
<path d="M3400 2840 c-52 -5 -135 -11 -185 -14 -49 -4 -93 -10 -96 -14 -3 -4
-14 -160 -23 -347 -9 -187 -19 -377 -23 -422 l-6 -83 57 0 57 0 -18 -30 c-13
-23 -15 -32 -5 -42 17 -17 15 -38 -3 -38 -27 0 -94 39 -111 65 -11 16 -15 38
-12 62 5 38 -8 83 -24 83 -19 0 -32 -51 -20 -82 9 -24 8 -37 -2 -62 -12 -29
-19 -32 -87 -44 -41 -8 -84 -16 -96 -19 -26 -6 -47 28 -39 63 6 22 11 24 69
25 112 1 99 -43 124 435 12 230 19 422 15 426 -5 5 -41 5 -82 0 l-75 -7 -38
-80 c-22 -44 -50 -100 -64 -124 l-26 -44 -47 114 -47 114 -78 -2 c-42 -1 -79
-4 -82 -7 -5 -5 -28 -398 -38 -636 -3 -74 -8 -154 -11 -177 l-5 -43 45 0 c45
0 45 0 34 -25 -9 -19 -8 -31 1 -49 17 -31 0 -64 -37 -72 -15 -3 -36 -9 -47
-14 -11 -5 -27 -9 -35 -9 -8 0 -71 -14 -140 -30 -158 -39 -187 -40 -196 -6 -4
15 -1 32 6 40 11 13 10 20 0 40 -17 32 -35 32 -55 1 -14 -20 -14 -28 -3 -45
11 -18 10 -26 -2 -49 -9 -15 -25 -28 -35 -30 -11 -2 -30 -8 -42 -14 -13 -6
-26 -9 -29 -5 -3 3 -18 1 -33 -5 -14 -6 -55 -16 -91 -23 -36 -8 -116 -25 -179
-39 -87 -20 -117 -24 -127 -15 -17 14 -18 51 -3 66 15 15 -6 53 -31 53 -27 0
-35 -18 -35 -77 0 -66 -13 -78 -76 -76 -38 1 -56 -4 -70 -18 -10 -10 -19 -22
-19 -26 0 -5 -20 -9 -44 -10 -24 -1 -72 -9 -107 -17 -43 -11 -66 -13 -73 -6
-17 17 -55 11 -66 -10 -23 -44 -65 -7 -54 48 7 36 -10 72 -35 72 -23 0 -32
-31 -24 -86 5 -38 2 -46 -22 -68 -15 -14 -39 -26 -51 -26 -48 0 -27 -37 62
-112 124 -104 337 -290 349 -304 6 -7 33 -31 60 -54 28 -23 82 -70 120 -105
39 -34 104 -92 145 -128 41 -37 122 -109 179 -160 58 -50 119 -105 136 -122
18 -16 54 -49 81 -72 27 -23 83 -76 124 -117 41 -42 80 -76 87 -76 7 0 36 11
65 24 29 13 96 37 148 54 52 17 214 69 360 116 146 47 317 101 380 121 63 21
202 66 309 101 107 35 198 64 204 64 5 0 23 6 40 14 18 8 86 31 152 51 66 20
165 52 220 70 55 19 136 43 180 54 44 12 89 26 100 31 11 5 65 21 120 36 55
14 116 30 135 35 19 6 62 16 95 23 86 18 105 30 105 69 0 25 -7 37 -33 54 -18
13 -40 23 -49 23 -9 0 -18 9 -21 20 -3 11 -13 20 -22 20 -17 0 -137 62 -165
85 -8 7 -60 36 -115 64 -55 29 -103 58 -107 64 -4 7 -8 30 -8 52 0 22 -4 47
-9 54 -6 8 -6 22 -1 31 5 9 3 22 -5 33 -18 25 -23 11 -20 -48 4 -58 -2 -85
-17 -85 -6 0 -37 12 -68 26 -58 26 -58 26 -66 78 -4 28 -6 70 -5 92 1 23 -2
45 -8 49 -8 4 -11 -16 -11 -63 0 -96 -8 -100 -103 -54 -58 27 -76 40 -71 52
14 35 16 50 4 50 -6 0 -14 -9 -17 -20 -3 -11 -8 -20 -10 -20 -3 0 -33 13 -67
29 -71 35 -89 58 -80 106 7 40 -2 75 -21 75 -19 0 -35 -32 -35 -69 0 -16 -4
-32 -8 -35 -5 -3 -7 -19 -4 -36 2 -18 0 -30 -7 -30 -6 0 -11 11 -11 25 0 14
-5 25 -11 25 -8 0 -8 4 0 14 9 11 6 16 -17 24 -55 19 -94 87 -62 107 6 4 4 17
-6 36 -14 29 -17 30 -33 15 -20 -18 -23 -45 -9 -63 21 -27 -24 -26 -78 1 -63
32 -74 48 -72 107 1 24 -2 54 -6 65 -8 21 -5 22 126 29 181 10 178 9 178 91
l0 66 -130 -7 -130 -8 0 94 c0 52 4 99 8 105 4 6 40 13 80 16 40 3 74 7 76 9
2 2 6 34 9 72 l5 67 -82 0 -81 0 3 97 c2 54 6 100 7 102 2 2 61 8 132 13 72 6
131 15 135 22 4 6 8 39 8 74 0 71 18 65 -150 52z m-620 -640 c-7 -129 -14
-237 -16 -239 -2 -2 -11 2 -20 10 -14 11 -18 11 -30 -6 -16 -22 -18 -61 -4
-70 15 -9 12 -51 -4 -64 -15 -12 -119 -34 -171 -35 -31 -1 -32 1 -19 55 4 17
0 31 -10 42 -23 22 -20 27 14 27 17 0 30 3 30 8 0 4 7 122 15 262 8 140 15
262 15 270 0 12 3 11 11 -3 5 -9 7 -22 3 -29 -4 -6 -3 -8 2 -5 6 3 15 -6 21
-21 59 -134 55 -127 70 -107 7 11 33 57 56 102 32 64 43 78 46 61 2 -13 -2
-129 -9 -258z m-437 -487 c-7 -2 -19 -2 -25 0 -7 3 -2 5 12 5 14 0 19 -2 13
-5z m591 -28 c-4 -8 -11 -15 -16 -15 -6 0 -5 6 2 15 7 8 14 15 16 15 2 0 1 -7
-2 -15z m50 -10 c-4 -8 -12 -15 -20 -15 -7 0 -18 -8 -23 -17 -6 -10 -11 -13
-11 -6 0 6 12 21 28 32 33 25 33 25 26 6z m-819 -2 c-11 -3 -23 -10 -27 -16
-4 -6 -10 -8 -15 -4 -10 11 17 27 42 26 l20 -1 -20 -5z m872 1 c-3 -3 -12 -4
-19 -1 -8 3 -5 6 6 6 11 1 17 -2 13 -5z m293 -4 c0 -5 -2 -10 -4 -10 -3 0 -8
5 -11 10 -3 6 -1 10 4 10 6 0 11 -4 11 -10z m-1704 -121 c-29 -6 -53 -6 -58
-1 -5 5 15 9 49 9 l58 1 -49 -9z m1901 -6 c-9 -9 -19 -14 -23 -11 -10 10 6 28
24 28 15 0 15 -1 -1 -17z m163 -3 c0 -5 -7 -10 -16 -10 -8 0 -12 5 -9 10 3 6
10 10 16 10 5 0 9 -4 9 -10z m-1750 -20 c0 -5 -14 -10 -31 -10 -17 0 -28 4
-24 10 3 6 17 10 31 10 13 0 24 -4 24 -10z m920 -20 c0 -5 -4 -10 -10 -10 -5
0 -10 5 -10 10 0 6 5 10 10 10 6 0 10 -4 10 -10z m-750 -10 c0 -5 -5 -10 -11
-10 -5 0 -7 5 -4 10 3 6 8 10 11 10 2 0 4 -4 4 -10z m1590 6 c0 -3 -4 -8 -10
-11 -5 -3 -10 -1 -10 4 0 6 5 11 10 11 6 0 10 -2 10 -4z m-1710 -16 c0 -5 -19
-9 -42 -9 -40 1 -41 2 -13 9 44 11 55 11 55 0z m690 -16 c0 -2 -9 0 -20 6 -11
6 -20 13 -20 16 0 2 9 0 20 -6 11 -6 20 -13 20 -16z m643 14 c3 -8 -4 -13 -18
-13 -18 0 -21 3 -13 13 6 6 14 12 18 12 4 0 10 -6 13 -12z m-1283 -8 c0 -5 -8
-10 -17 -10 -15 0 -16 2 -3 10 19 12 20 12 20 0z m1470 -6 c0 -8 -4 -12 -10
-9 -5 3 -10 10 -10 16 0 5 5 9 10 9 6 0 10 -7 10 -16z m-449 -59 c0 -6 -11
-11 -23 -12 -15 -1 -17 0 -5 3 9 3 14 10 11 16 -4 6 -1 9 5 7 7 -3 12 -9 12
-14z m569 -3 c0 -11 -37 -41 -44 -35 -9 9 14 43 29 43 8 0 15 -3 15 -8z
m-1120 -12 c0 -5 -4 -10 -10 -10 -5 0 -10 5 -10 10 0 6 5 10 10 10 6 0 10 -4
10 -10z m-172 -56 c-3 -27 -4 -26 -9 8 -3 22 -1 34 4 29 5 -5 7 -21 5 -37z
m532 42 c0 -2 -7 -6 -15 -10 -8 -3 -15 -1 -15 4 0 6 7 10 15 10 8 0 15 -2 15
-4z m-1415 -16 c-3 -5 -10 -10 -16 -10 -5 0 -9 5 -9 10 0 6 7 10 16 10 8 0 12
-4 9 -10z m55 -10 c0 -5 -2 -10 -4 -10 -3 0 -8 5 -11 10 -3 6 -1 10 4 10 6 0
11 -4 11 -10z m1316 -11 c10 -12 15 -24 9 -25 -6 -3 -8 -37 -4 -91 6 -97 3
-113 -17 -113 -8 0 -14 1 -15 3 -6 30 -8 247 -1 247 5 0 17 -10 28 -21z m122
1 c-7 -11 -24 -20 -37 -20 -26 0 -24 6 11 26 33 18 40 16 26 -6z m87 11 c-6
-5 -23 -13 -39 -17 -27 -6 -28 -6 -15 9 8 9 25 16 39 17 15 0 20 -4 15 -9z
m452 3 c-3 -3 -12 -4 -19 -1 -8 3 -5 6 6 6 11 1 17 -2 13 -5z m-900 -26 c-3
-8 -6 -5 -6 6 -1 11 2 17 5 13 3 -3 4 -12 1 -19z m53 1 c0 -5 -7 -9 -15 -9 -8
0 -15 7 -15 15 0 9 6 12 15 9 8 -4 15 -10 15 -15z m1493 -8 c4 -18 -19 -88
-28 -79 -3 2 -1 18 4 35 7 24 6 33 -5 37 -20 8 -17 26 5 26 10 0 21 -8 24 -19z
m-1268 0 c-3 -5 2 -12 10 -14 12 -4 12 -5 -1 -3 -19 1 -32 26 -14 26 6 0 9 -4
5 -9z m285 -1 c0 -5 -5 -10 -11 -10 -5 0 -7 5 -4 10 3 6 8 10 11 10 2 0 4 -4
4 -10z m-1785 -10 c3 -5 1 -10 -4 -10 -6 0 -11 5 -11 10 0 6 2 10 4 10 3 0 8
-4 11 -10z m905 -16 c0 -14 -4 -23 -9 -20 -7 5 -8 23 -2 44 4 12 11 -3 11 -24z
m820 21 c0 -8 -58 -35 -75 -35 -32 0 -13 19 28 28 23 6 43 10 45 11 1 1 2 -1
2 -4z m-770 -30 c0 -8 -2 -15 -4 -15 -2 0 -6 7 -10 15 -3 8 -1 15 4 15 6 0 10
-7 10 -15z m975 -2 c42 -20 46 -36 8 -27 -27 7 -53 26 -53 38 0 9 6 7 45 -11z
m-785 3 c0 -3 -4 -8 -10 -11 -5 -3 -10 -1 -10 4 0 6 5 11 10 11 6 0 10 -2 10
-4z m-120 -16 c0 -5 -4 -10 -9 -10 -6 0 -13 5 -16 10 -3 6 1 10 9 10 9 0 16
-4 16 -10z m323 -19 c6 -25 -36 -32 -84 -15 l-34 12 32 1 c17 1 35 6 38 11 11
17 42 11 48 -9z m177 9 c0 -5 -8 -10 -17 -10 -15 0 -16 2 -3 10 19 12 20 12
20 0z m-335 -10 c3 -5 -1 -10 -9 -10 -9 0 -16 5 -16 10 0 6 4 10 9 10 6 0 13
-4 16 -10z m539 2 c3 -5 -1 -9 -9 -9 -8 0 -15 4 -15 9 0 4 4 8 9 8 6 0 12 -4
15 -8z m-1160 -17 c-4 -8 -11 -15 -16 -15 -6 0 -5 6 2 15 7 8 14 15 16 15 2 0
1 -7 -2 -15z m1099 -3 c-19 -14 -21 -25 -19 -70 2 -29 6 -55 9 -58 3 -3 1 -19
-4 -36 -5 -17 -6 -41 -3 -54 3 -12 1 -25 -4 -28 -6 -3 -10 8 -10 28 0 19 -3
39 -6 45 -4 5 -2 13 4 16 8 5 8 11 0 20 -6 7 -8 19 -4 28 3 8 0 18 -6 22 -6 4
-9 14 -6 23 3 10 -1 25 -9 36 -11 15 -21 17 -49 12 -24 -5 -36 -3 -36 4 0 8
18 11 54 8 30 -1 52 0 50 4 -4 7 18 15 46 17 10 0 8 -5 -7 -17z m207 3 c-7 -9
-15 -13 -17 -11 -7 7 7 26 19 26 6 0 6 -6 -2 -15z m-984 -10 c4 -8 13 -15 21
-15 8 0 11 5 8 10 -4 6 7 10 24 10 21 0 31 -5 31 -15 0 -9 -9 -15 -24 -15 -14
0 -27 -4 -30 -9 -4 -5 -18 -5 -35 2 -17 6 -28 15 -25 19 3 4 -3 8 -13 8 -15 0
-16 2 -3 10 22 14 40 12 46 -5z m262 -15 c10 -17 10 -20 -3 -20 -8 0 -15 2
-15 4 0 2 -3 11 -6 20 -9 23 9 20 24 -4z m-548 6 c0 -3 -4 -8 -10 -11 -5 -3
-10 -1 -10 4 0 6 5 11 10 11 6 0 10 -2 10 -4z m1472 -14 c-6 -2 -12 -10 -12
-18 0 -8 -4 -14 -9 -14 -5 0 -8 11 -7 23 1 19 5 23 21 19 11 -3 14 -7 7 -10z
m674 -9 c-2 -16 -4 -31 -5 -35 0 -5 -7 -8 -15 -8 -10 0 -11 7 -2 35 13 42 26
46 22 8z m-2766 3 c0 -20 -26 -27 -40 -11 -8 10 -8 14 2 18 24 10 38 7 38 -7z
m1100 10 c0 -3 -4 -8 -10 -11 -5 -3 -10 -1 -10 4 0 6 5 11 10 11 6 0 10 -2 10
-4z m944 -11 c3 -8 2 -15 -3 -15 -5 0 -14 7 -21 15 -10 12 -10 15 3 15 8 0 17
-7 21 -15z m126 -12 c-1 -24 -2 -26 -11 -10 -5 9 -7 22 -4 27 10 17 15 11 15
-17z m-1889 4 c-1 -12 -15 -9 -19 4 -3 6 1 10 8 8 6 -3 11 -8 11 -12z m409 3
c0 -5 -2 -10 -4 -10 -3 0 -8 5 -11 10 -3 6 -1 10 4 10 6 0 11 -4 11 -10z m380
6 c0 -11 -19 -15 -25 -6 -3 5 1 10 9 10 9 0 16 -2 16 -4z m-476 -32 c4 -12 2
-12 -14 -4 -11 6 -20 15 -20 20 0 14 28 1 34 -16z m76 6 c0 -5 -2 -10 -4 -10
-3 0 -8 5 -11 10 -3 6 -1 10 4 10 6 0 11 -4 11 -10z m1460 6 c0 -3 -4 -8 -10
-11 -5 -3 -10 -1 -10 4 0 6 5 11 10 11 6 0 10 -2 10 -4z m-1230 -16 c0 -5 -3
-10 -7 -10 -5 0 -19 -3 -33 -6 l-25 -5 25 15 c30 18 40 20 40 6z m690 0 c0 -5
-7 -10 -15 -10 -8 0 -15 5 -15 10 0 6 7 10 15 10 8 0 15 -4 15 -10z m1105 -12
c2 -13 4 -32 2 -43 -2 -17 5 -20 43 -23 25 -2 49 -7 55 -13 5 -5 20 -9 33 -9
36 0 11 -26 -34 -34 -29 -6 -38 -3 -55 16 l-21 23 5 -22 c3 -15 0 -23 -8 -23
-7 0 -16 -7 -19 -16 -8 -21 2 -54 16 -54 5 0 8 -5 6 -11 -2 -6 -8 -11 -13 -11
-6 0 -16 -4 -23 -10 -7 -6 -15 -9 -17 -6 -3 2 -5 50 -6 106 -1 81 -4 102 -15
102 -8 0 -14 5 -14 11 0 5 5 7 11 4 6 -4 13 2 16 14 7 28 31 27 38 -1z m-2709
-26 c-18 -16 -19 -16 -12 1 3 10 6 24 6 30 0 8 4 7 12 -1 10 -9 8 -16 -6 -30z
m478 32 c9 -3 16 -13 16 -22 0 -12 -3 -13 -11 -5 -6 6 -18 9 -25 6 -8 -3 -14
1 -14 11 0 17 9 20 34 10z m636 -4 c0 -5 -2 -10 -4 -10 -3 0 -8 5 -11 10 -3 6
-1 10 4 10 6 0 11 -4 11 -10z m-700 -10 c0 -5 -2 -10 -4 -10 -3 0 -8 5 -11 10
-3 6 -1 10 4 10 6 0 11 -4 11 -10z m769 -32 c1 -5 -3 -8 -9 -8 -5 0 -10 12 -9
28 0 24 1 25 9 7 5 -11 9 -23 9 -27z m-173 17 c-8 -8 -20 -15 -27 -15 -7 0 -4
6 7 15 25 19 40 19 20 0z m52 -3 c2 -7 -3 -12 -12 -12 -9 0 -16 7 -16 16 0 17
22 14 28 -4z m1017 8 c3 -5 1 -10 -4 -10 -6 0 -11 5 -11 10 0 6 2 10 4 10 3 0
8 -4 11 -10z m705 0 c0 -5 -5 -10 -11 -10 -5 0 -7 5 -4 10 3 6 8 10 11 10 2 0
4 -4 4 -10z m-1820 -10 c0 -5 -4 -10 -10 -10 -5 0 -10 5 -10 10 0 6 5 10 10
10 6 0 10 -4 10 -10z m930 0 c0 -5 -4 -10 -10 -10 -5 0 -10 5 -10 10 0 6 5 10
10 10 6 0 10 -4 10 -10z m135 -4 c16 -16 10 -26 -17 -26 -11 0 -18 7 -18 20 0
23 15 26 35 6z m155 -5 c0 -6 -4 -13 -10 -16 -5 -3 -10 1 -10 9 0 9 5 16 10
16 6 0 10 -4 10 -9z m390 -1 c0 -5 -4 -10 -9 -10 -6 0 -13 5 -16 10 -3 6 1 10
9 10 9 0 16 -4 16 -10z m245 1 c3 -5 1 -12 -5 -16 -5 -3 -10 1 -10 9 0 18 6
21 15 7z m-1455 -11 c0 -5 -2 -10 -4 -10 -3 0 -8 5 -11 10 -3 6 -1 10 4 10 6
0 11 -4 11 -10z m207 3 c-4 -3 -2 -12 5 -20 17 -21 1 -28 -18 -8 -15 14 -15
18 -3 26 17 10 25 12 16 2z m859 -24 c3 -6 -5 -3 -20 6 -14 10 -26 19 -26 22
0 7 39 -17 46 -28z m57 5 c-1 -10 4 -22 10 -26 17 -11 -12 -9 -38 2 -18 8 -18
9 -2 9 14 1 17 6 12 22 -5 16 -3 20 6 17 8 -3 13 -14 12 -24z m161 10 c11 -27
7 -36 -14 -29 -14 4 -20 2 -18 -7 2 -7 -6 -14 -17 -16 -15 -2 -20 3 -21 23 -1
18 3 25 16 25 11 0 22 5 25 10 9 15 22 12 29 -6z m-1701 -6 c3 -8 -5 -14 -19
-14 -25 -2 -33 11 -11 19 20 9 25 8 30 -5z m992 6 c13 -5 12 -8 -8 -19 -35
-18 -80 -28 -72 -15 3 5 14 10 25 10 10 0 20 7 24 15 6 17 8 17 31 9z m-744
-17 c-1 -12 -15 -9 -19 4 -3 6 1 10 8 8 6 -3 11 -8 11 -12z m219 3 c0 -5 -7
-10 -16 -10 -8 0 -12 5 -9 10 3 6 10 10 16 10 5 0 9 -4 9 -10z m420 -9 c7 -14
7 -22 -1 -27 -12 -7 -29 12 -29 34 0 19 18 14 30 -7z m710 9 c4 0 10 -9 13
-20 6 -23 3 -24 -22 -10 -25 13 -38 45 -15 36 8 -3 19 -6 24 -6z m-2530 -25
c-6 -7 -9 -21 -9 -31 5 -49 -4 -65 -11 -19 -8 58 -4 76 16 68 10 -4 12 -9 4
-18z m1030 15 c0 -5 -4 -10 -10 -10 -5 0 -10 5 -10 10 0 6 5 10 10 10 6 0 10
-4 10 -10z m287 -24 c-25 -25 -40 -19 -20 8 10 14 22 21 27 16 5 -5 2 -15 -7
-24z m152 25 c19 -12 1 -20 -34 -13 -26 4 -27 6 -10 13 26 10 28 10 44 0z
m-119 -31 c0 -5 -5 -10 -11 -10 -5 0 -7 5 -4 10 3 6 8 10 11 10 2 0 4 -4 4
-10z m820 0 c0 -5 -4 -10 -10 -10 -5 0 -10 5 -10 10 0 6 5 10 10 10 6 0 10 -4
10 -10z m866 -12 c7 -8 -45 -20 -56 -13 -20 13 -9 25 20 22 17 -2 33 -6 36 -9z
m-1566 -8 c0 -5 -4 -10 -10 -10 -5 0 -10 5 -10 10 0 6 5 10 10 10 6 0 10 -4
10 -10z m1470 -10 c-8 -5 -17 -7 -19 -4 -3 3 1 9 9 14 8 5 17 7 19 4 3 -3 -1
-9 -9 -14z m-2425 -10 c3 -5 1 -10 -4 -10 -6 0 -11 5 -11 10 0 6 2 10 4 10 3
0 8 -4 11 -10z m1470 -8 c-3 -3 -11 0 -18 7 -9 10 -8 11 6 5 10 -3 15 -9 12
-12z m179 3 c-4 -8 -10 -15 -15 -15 -4 0 -6 7 -3 15 4 8 10 15 15 15 4 0 6 -7
3 -15z m476 -1 c0 -8 -5 -12 -10 -9 -6 4 -8 11 -5 16 9 14 15 11 15 -7z
m-1932 -6 c-3 -7 -13 -13 -23 -13 -10 0 -20 6 -22 13 -3 7 5 12 22 12 17 0 25
-5 23 -12z m2182 -7 c0 -6 -4 -13 -10 -16 -5 -3 -10 1 -10 9 0 9 5 16 10 16 6
0 10 -4 10 -9z m-1530 -21 c0 -4 -8 -10 -18 -12 -12 -3 -18 1 -18 12 0 11 6
15 18 12 10 -2 18 -8 18 -12z m141 7 c-12 -15 -118 -44 -127 -34 -3 3 23 15
58 26 76 24 84 25 69 8z m579 4 c0 -5 -9 -7 -20 -4 -18 5 -20 1 -18 -28 3 -39
17 -53 35 -37 10 8 13 6 13 -10 0 -15 -5 -19 -20 -15 -16 4 -20 0 -20 -17 0
-19 2 -20 15 -10 17 14 21 0 5 -16 -15 -15 -31 -76 -18 -68 7 4 8 -2 3 -17
-10 -32 -12 -34 -29 -20 -12 10 -15 49 -6 71 2 6 0 67 -4 120 -2 19 1 41 7 48
11 14 57 17 57 3z m-800 -11 c0 -5 -2 -10 -4 -10 -3 0 -8 5 -11 10 -3 6 -1 10
4 10 6 0 11 -4 11 -10z m577 -16 c-3 -3 -12 -4 -19 -1 -8 3 -5 6 6 6 11 1 17
-2 13 -5z m73 2 c0 -8 -51 -13 -56 -5 -3 5 9 9 25 9 17 0 31 -2 31 -4z m-640
-26 c0 -5 -2 -10 -4 -10 -3 0 -8 5 -11 10 -3 6 -1 10 4 10 6 0 11 -4 11 -10z
m-315 -28 c-8 -8 -25 10 -19 20 4 6 9 5 15 -3 4 -7 6 -15 4 -17z m1005 18 c0
-5 -7 -10 -16 -10 -8 0 -12 5 -9 10 3 6 10 10 16 10 5 0 9 -4 9 -10z m-1625
-20 c3 -6 -1 -13 -10 -16 -19 -8 -30 0 -20 15 8 14 22 14 30 1z m670 0 c3 -6
-1 -13 -10 -16 -19 -8 -30 0 -20 15 8 14 22 14 30 1z m129 -6 c4 -10 1 -14 -6
-12 -15 5 -23 28 -10 28 5 0 13 -7 16 -16z m822 -14 c15 0 19 -16 6 -24 -11
-6 -43 30 -34 39 4 3 8 1 10 -4 2 -6 10 -11 18 -11z m-1056 -19 c0 -9 -22 -31
-31 -31 -10 0 -20 30 -14 40 6 9 45 1 45 -9z m1457 3 c-3 -3 -12 -4 -19 -1 -8
3 -5 6 6 6 11 1 17 -2 13 -5z m-1087 -34 c0 -5 -4 -10 -10 -10 -5 0 -10 5 -10
10 0 6 5 10 10 10 6 0 10 -4 10 -10z m-365 -9 c3 -5 1 -12 -5 -16 -5 -3 -10 1
-10 9 0 18 6 21 15 7z m546 -18 c2 -33 -3 -58 -12 -61 -5 -2 -9 -8 -9 -14 0
-6 7 -8 15 -4 18 6 18 7 4 -33 -6 -17 -15 -31 -20 -31 -13 0 -11 17 3 26 8 5
7 10 -5 18 -12 9 -13 21 -7 56 5 25 6 48 4 52 -3 5 2 8 10 8 9 0 17 -8 17 -17z
m706 1 c-3 -3 -12 -4 -19 -1 -8 3 -5 6 6 6 11 1 17 -2 13 -5z m-1277 -13 c0
-6 -4 -13 -10 -16 -5 -3 -10 1 -10 9 0 9 5 16 10 16 6 0 10 -4 10 -9z m827 3
c-3 -3 -12 -4 -19 -1 -8 3 -5 6 6 6 11 1 17 -2 13 -5z m-766 -17 c-7 -7 -14
-8 -21 -1 -6 6 -2 10 12 11 16 2 18 -1 9 -10z m799 -2 c0 -8 -4 -15 -10 -15
-5 0 -7 7 -4 15 4 8 8 15 10 15 2 0 4 -7 4 -15z m-530 1 c0 -3 -4 -8 -10 -11
-5 -3 -10 -1 -10 4 0 6 5 11 10 11 6 0 10 -2 10 -4z m574 -17 c-3 -5 -10 -7
-15 -3 -5 3 -7 10 -3 15 3 5 10 7 15 3 5 -3 7 -10 3 -15z m-725 2 c8 -5 9 -11
3 -15 -13 -8 -42 3 -42 15 0 11 21 11 39 0z m181 -10 c0 -6 -4 -13 -10 -16 -5
-3 -10 1 -10 9 0 9 5 16 10 16 6 0 10 -4 10 -9z m463 -28 c-7 -2 -21 -2 -30 0
-10 3 -4 5 12 5 17 0 24 -2 18 -5z m-799 -42 c-6 -6 -24 19 -24 34 1 6 7 1 15
-9 8 -11 12 -22 9 -25z m156 8 c0 -5 -4 -9 -10 -9 -5 0 -10 7 -10 16 0 8 5 12
10 9 6 -3 10 -10 10 -16z m367 -59 c1 -11 -2 -20 -8 -20 -10 0 -12 23 -2 33 9
9 9 10 10 -13z m-857 6 c0 -11 -19 -15 -25 -6 -3 5 1 10 9 10 9 0 16 -2 16 -4z
m38 -14 c2 -7 -2 -10 -12 -6 -9 3 -16 11 -16 16 0 13 23 5 28 -10z m289 -4
c-3 -8 -6 -5 -6 6 -1 11 2 17 5 13 3 -3 4 -12 1 -19z m773 12 c0 -5 -5 -10
-11 -10 -5 0 -7 5 -4 10 3 6 8 10 11 10 2 0 4 -4 4 -10z m-949 -27 c3 -20 7
-87 11 -173 3 -89 2 -95 -17 -95 -17 0 -20 7 -21 46 0 25 -3 49 -6 55 -5 7 -4
162 1 172 3 6 31 1 32 -5z m709 -41 c0 -15 -2 -15 -10 -2 -13 20 -13 33 0 25
6 -3 10 -14 10 -23z m450 8 c-20 -13 -33 -13 -25 0 3 6 14 10 23 10 15 0 15
-2 2 -10z m-536 -55 c-4 -8 -13 -15 -21 -15 -13 0 -13 3 -3 15 7 8 16 15 21
15 5 0 6 -7 3 -15z m-354 -5 c0 -5 -2 -10 -4 -10 -3 0 -8 5 -11 10 -3 6 -1 10
4 10 6 0 11 -4 11 -10z m249 -13 c-14 -13 -27 -18 -31 -13 -8 11 20 35 41 36
9 0 6 -8 -10 -23z"/>
<path d="M2005 2741 l-59 -6 -111 -433 c-61 -238 -110 -433 -109 -435 1 -1 38
0 81 3 l78 5 16 65 c18 73 25 77 120 79 63 1 69 -5 69 -81 0 -20 5 -40 11 -44
6 -3 44 -3 85 1 69 6 74 8 74 30 0 12 -16 123 -36 246 -19 123 -33 231 -31
241 3 10 2 16 -2 14 -4 -3 -18 68 -32 157 l-24 162 -35 1 c-19 1 -62 -2 -95
-5z m48 -458 c15 -138 17 -133 -60 -133 -32 0 -44 4 -40 13 2 6 19 81 38 165
39 175 38 175 62 -45z"/>
<path d="M1486 2702 c-2 -4 -7 -84 -11 -178 l-8 -172 -36 -6 c-20 -3 -51 -6
-69 -6 -31 0 -33 2 -28 28 3 15 8 93 11 175 l7 147 -69 0 c-40 0 -76 -5 -85
-12 -13 -11 -18 -70 -32 -348 -9 -184 -19 -375 -23 -423 l-6 -88 79 7 c43 3
82 9 86 13 4 3 10 82 14 174 4 92 11 170 16 173 5 3 36 8 70 11 l60 6 -6 -44
c-3 -24 -8 -104 -12 -176 l-6 -133 81 0 c57 0 83 4 86 13 2 6 11 156 19 332 9
176 19 364 22 418 l7 97 -81 0 c-45 0 -83 -3 -86 -8z"/>
<path d="M687 2650 c-54 -4 -100 -10 -103 -12 -7 -7 -49 -847 -42 -853 10 -11
279 15 318 31 49 20 122 98 139 150 7 22 19 143 27 269 17 269 12 305 -45 365
-56 59 -91 65 -294 50z m155 -157 c27 -33 29 -56 17 -262 -12 -214 -19 -246
-61 -275 -23 -16 -88 -22 -88 -8 0 4 7 122 15 262 8 140 15 265 15 278 0 19 5
22 43 22 29 0 49 -6 59 -17z"/>
<path d="M3750 1685 c0 -14 2 -25 4 -25 2 0 6 11 8 25 3 14 1 25 -3 25 -5 0
-9 -11 -9 -25z"/>
<path d="M3750 1624 c0 -14 4 -23 10 -19 6 3 10 15 10 26 0 10 -4 19 -10 19
-5 0 -10 -12 -10 -26z"/>
</g>
</svg>
