<?xml version="1.0" encoding="utf-8"?>
<!-- Generator: Adobe Illustrator 23.0.5, SVG Export Plug-In . SVG Version: 6.00 Build 0)  -->
<svg version="1.1" id="Calque_1" xmlns="http://www.w3.org/2000/svg" xmlns:xlink="http://www.w3.org/1999/xlink" x="0px" y="0px"
	 viewBox="0 0 108.06 108" style="enable-background:new 0 0 108.06 108;" xml:space="preserve">
<style type="text/css">
	.st0{opacity:0.88;fill:#C69C6D;}
	.st1{fill:none;stroke:#000000;stroke-width:0.25;stroke-miterlimit:10;}
	.st2{fill:#C69C6D;stroke:#42210B;stroke-width:0.25;stroke-miterlimit:10;}
	.st3{fill:none;stroke:#42210B;stroke-width:0.25;stroke-miterlimit:10;}
	.st4{fill:#603813;stroke:#42210B;stroke-width:2;stroke-miterlimit:10;}
	.st5{fill:none;stroke:#000000;stroke-width:5;stroke-miterlimit:10;}
	.st6{fill:none;stroke:#000000;stroke-width:6;stroke-miterlimit:10;}
	.st7{stroke:#000000;stroke-width:7;stroke-miterlimit:10;}
</style>
<g>
	<g>
		<polygon class="st0" points="108.06,108 0.06,108 0.06,49.08 0.06,0 108.06,0 		"/>
		<rect x="6.06" y="6" class="st0" width="96" height="96"/>
		<rect x="90.06" y="6" class="st1" width="12" height="96"/>
		<rect x="78.06" y="6" class="st1" width="12" height="96"/>
		<rect x="66.06" y="6" class="st1" width="12" height="96"/>
		<rect x="54.06" y="6" class="st1" width="12" height="96"/>
		<rect x="42.06" y="6" class="st1" width="12" height="96"/>
		<rect x="30.06" y="6" class="st1" width="12" height="96"/>
		<rect x="18.06" y="6" class="st1" width="12" height="96"/>
		<rect x="6.06" y="6" class="st1" width="12" height="96"/>
		<rect x="48.06" y="-36" transform="matrix(-1.836970e-16 1 -1 -1.836970e-16 66.06 -42.06)" class="st1" width="12" height="96"/>
		<rect x="48.06" y="36" transform="matrix(-1.836970e-16 1 -1 -1.836970e-16 138.06 29.94)" class="st1" width="12" height="96"/>
		<rect x="48.06" y="48" transform="matrix(-1.836970e-16 1 -1 -1.836970e-16 150.06 41.94)" class="st1" width="12" height="96"/>
		<rect x="48.06" y="12" transform="matrix(-1.836970e-16 1 -1 -1.836970e-16 114.06 5.94)" class="st1" width="12" height="96"/>
		<rect x="48.06" y="24" transform="matrix(-1.836970e-16 1 -1 -1.836970e-16 126.06 17.94)" class="st1" width="12" height="96"/>
		<rect x="48.06" transform="matrix(-1.836970e-16 1 -1 -1.836970e-16 102.06 -6.06)" class="st1" width="12" height="96"/>
		<rect x="48.06" y="-24" transform="matrix(-1.836970e-16 1 -1 -1.836970e-16 78.06 -30.06)" class="st1" width="12" height="96"/>
		<rect x="48.06" y="-12" transform="matrix(-1.836970e-16 1 -1 -1.836970e-16 90.06 -18.06)" class="st1" width="12" height="96"/>
		<line class="st2" x1="6.06" y1="6" x2="102.06" y2="102"/>
		
			<rect x="37.09" y="3.09" transform="matrix(0.7071 -0.7071 0.7071 0.7071 -22.35 54.0424)" class="st3" width="33.94" height="101.82"/>
		
			<rect x="3.15" y="37.03" transform="matrix(0.7071 -0.7071 0.7071 0.7071 -22.35 54.0424)" class="st3" width="101.82" height="33.94"/>
		<line class="st2" x1="6.06" y1="102" x2="102.06" y2="6"/>
		<path class="st4" d="M30.06,30"/>
		<path class="st5" d="M54.06,30"/>
		<path class="st6" d="M42.06,42"/>
		<path class="st7" d="M42.06,66"/>
	</g>
	
		<rect x="20.12" y="20.06" transform="matrix(0.7071 -0.7071 0.7071 0.7071 -22.35 54.0424)" class="st3" width="67.88" height="67.88"/>
</g>
</svg>
